# xmcd
#
# Track frame offsets: 
#        151
#        13470
#        31061
#        50756
#        63691
#        78590
#        94225
#        109632
#        129775
#        141640
#        158865
#        170976
#        187747
#        203232
#
# Disc length: 2915 seconds
#
# Revision: 1
# Processed by: cddbd v1.5.2PL0 Copyright (c) Steve Scherf et al.
# Submitted via: ExactAudioCopy v0.99pb5
#
DISCID=ca0b610e
DTITLE=JASMINE - UNFORGETTABLE CHINESE MELODIES
DYEAR=1900
DGENRE=Classical
TTITLE0=JASMINE
TTITLE1=THERE'S NO PLACE LIKE MY HOME TOWN
TTITLE2=REALLY MISSING YOU ¡Ø GOOD
TTITLE3=WHY SO RED ARE THE FLOWER
TTITLE4=WISH YOU BON VOYAGE
TTITLE5=SURGING WAVES OF HONG LAKE
TTITLE6=STRONG AFFECTIONS
TTITLE7=VARIATIONS ON THE THEME OF PLUM BLOSSOMS
TTITLE8=CABBAGE SPROUT, A BALLAD
TTITLE9=TALE OF THE SMALL CITY
TTITLE10=CRADLE SONG
TTITLE11=A HAPPY NIGHT
TTITLE12=LADY MENG JIAN, A LEGEND OF THE GREAT WALL
TTITLE13=LADY MENG JIAN, A LEGEND OF THE GREAT WALL (HDCD)
EXTD=
EXTT0=
EXTT1=
EXTT2=
EXTT3=
EXTT4=
EXTT5=
EXTT6=
EXTT7=
EXTT8=
EXTT9=
EXTT10=
EXTT11=
EXTT12=
EXTT13=
PLAYORDER=
